<svg width="22" height="16" viewBox="0 0 22 16" fill="none" xmlns="http://www.w3.org/2000/svg">
<path d="M18.0588 1.32698C16.6989 0.713688 15.2412 0.260385 13.7169 0.00262254C13.7033 1.63405e-05 13.6892 0.00169597 13.6766 0.00742869C13.664 0.0131614 13.6535 0.0226634 13.6467 0.0346204C13.46 0.362602 13.252 0.790122 13.1062 1.12788C11.4896 0.886329 9.84588 0.886329 8.22921 1.12788C8.06686 0.753561 7.88376 0.388572 7.68081 0.0346204C7.67392 0.0225169 7.66352 0.0127988 7.65097 0.00676464C7.63842 0.000729566 7.62434 -0.00133592 7.61059 0.000844571C6.08714 0.258605 4.62945 0.711908 3.26865 1.32609C3.25695 1.331 3.24702 1.33937 3.24022 1.35008C0.474173 5.41648 -0.283998 9.3824 0.0884213 13.2987C0.0894576 13.3082 0.0924349 13.3175 0.0971715 13.3259C0.101909 13.3343 0.108306 13.3417 0.115975 13.3475C1.73044 14.5229 3.53116 15.4183 5.44274 15.9962C5.45605 16.0003 5.47031 16.0003 5.48363 15.9962C5.49695 15.992 5.50872 15.984 5.51739 15.9731C5.92874 15.423 6.29325 14.8394 6.6071 14.2284C6.61146 14.22 6.61397 14.2108 6.61446 14.2014C6.61495 14.192 6.61342 14.1825 6.60996 14.1738C6.60651 14.165 6.60122 14.1571 6.59443 14.1505C6.58765 14.1441 6.57954 14.139 6.57066 14.1359C5.99647 13.9197 5.44014 13.6587 4.90677 13.3555C4.89719 13.35 4.88911 13.3423 4.88326 13.3329C4.87742 13.3235 4.87399 13.3129 4.87329 13.3019C4.87258 13.2909 4.87462 13.2798 4.87923 13.2698C4.88383 13.2598 4.89085 13.2511 4.89965 13.2444C5.01165 13.1618 5.12364 13.0755 5.2303 12.9894C5.2399 12.9816 5.25146 12.9766 5.26371 12.9751C5.27595 12.9735 5.28839 12.9753 5.29963 12.9804C8.79007 14.5483 12.5702 14.5483 16.0198 12.9804C16.0311 12.9751 16.0436 12.9729 16.0561 12.9743C16.0685 12.9758 16.0803 12.9806 16.09 12.9884C16.1967 13.0755 16.3078 13.1618 16.4207 13.2444C16.4296 13.2509 16.4367 13.2595 16.4414 13.2694C16.4462 13.2794 16.4484 13.2904 16.4478 13.3014C16.4474 13.3124 16.4441 13.3231 16.4385 13.3325C16.4327 13.342 16.4248 13.3499 16.4154 13.3555C15.8838 13.6613 15.331 13.9199 14.7506 14.1351C14.7417 14.1382 14.7335 14.1433 14.7267 14.15C14.7199 14.1566 14.7147 14.1646 14.7112 14.1735C14.7078 14.1823 14.7062 14.1917 14.7068 14.2012C14.7072 14.2106 14.7097 14.2199 14.7141 14.2284C15.0341 14.839 15.4003 15.4203 15.803 15.9722C15.8113 15.9835 15.823 15.9921 15.8363 15.9965C15.8497 16.001 15.8641 16.0011 15.8776 15.9972C17.7925 15.4208 19.5961 14.525 21.2124 13.3475C21.2202 13.342 21.2268 13.3348 21.2317 13.3266C21.2367 13.3183 21.2397 13.3091 21.2408 13.2995C21.6852 8.77185 20.496 4.83785 18.0863 1.35187C18.0805 1.34054 18.0706 1.3317 18.0588 1.32698ZM7.12884 10.9138C6.07824 10.9138 5.21164 9.96374 5.21164 8.79847C5.21164 7.63233 6.06136 6.68306 7.12884 6.68306C8.20433 6.68306 9.06294 7.64034 9.04605 8.79847C9.04605 9.96467 8.19632 10.9138 7.12884 10.9138ZM14.2173 10.9138C13.1658 10.9138 12.3001 9.96374 12.3001 8.79847C12.3001 7.63233 13.1489 6.68306 14.2173 6.68306C15.2928 6.68306 16.1513 7.64034 16.1344 8.79847C16.1344 9.96467 15.2936 10.9138 14.2173 10.9138Z" fill="#7BF5FB"/>
</svg>
