<svg width="443" height="1045" viewBox="0 0 443 1045" fill="none" xmlns="http://www.w3.org/2000/svg">
<g opacity="0.5">
<path opacity="0.0344828" d="M313.071 801.637C308.163 807.485 300.765 811.111 291.04 812.57C281.305 814.03 269.302 813.307 255.304 810.51C227.31 804.914 191.545 791.061 150.427 770.143C68.2047 728.314 -35.2228 658.342 -140.348 570.132C-245.473 481.921 -332.342 392.216 -387.813 318.506C-415.553 281.645 -435.407 248.829 -445.778 222.231C-450.964 208.932 -453.76 197.237 -454.012 187.397C-454.265 177.565 -451.979 169.65 -447.072 163.802C-442.164 157.954 -434.766 154.328 -425.041 152.87C-415.306 151.41 -403.303 152.132 -389.305 154.93C-361.311 160.525 -325.546 174.379 -284.428 195.297C-202.206 237.125 -98.7781 307.098 6.34677 395.308C111.472 483.518 198.341 573.224 253.812 646.933C281.552 683.794 301.406 716.61 311.777 743.208C316.963 756.507 319.759 768.203 320.011 778.042C320.264 787.874 317.978 795.789 313.071 801.637Z" stroke="#2B2C3B" stroke-width="2"/>
<path opacity="0.0689655" d="M283.83 837.517C278.431 842.915 270.746 845.882 260.93 846.488C251.105 847.094 239.211 845.328 225.51 841.321C198.109 833.307 163.688 816.389 124.549 791.967C46.286 743.132 -50.6495 664.411 -147.686 567.374C-244.723 470.337 -323.444 373.402 -372.279 295.138C-396.701 256 -413.619 221.578 -421.633 194.178C-425.64 180.477 -427.406 168.583 -426.8 158.758C-426.194 148.942 -423.227 141.256 -417.829 135.858C-412.431 130.46 -404.745 127.493 -394.929 126.887C-385.105 126.281 -373.21 128.047 -359.509 132.054C-332.109 140.068 -297.688 156.986 -258.549 181.408C-180.285 230.243 -83.35 308.964 13.6868 406.001C110.724 503.038 189.444 599.973 238.28 678.237C262.702 717.375 279.62 751.797 287.634 779.197C291.641 792.898 293.406 804.792 292.8 814.617C292.195 824.433 289.228 832.119 283.83 837.517Z" stroke="#2B2C3B" stroke-width="2"/>
<path opacity="0.103448" d="M251.917 870.728C246.069 875.635 238.154 877.921 228.322 877.669C218.483 877.416 206.787 874.621 193.488 869.435C166.89 859.063 134.074 839.21 97.2131 811.469C23.5038 755.999 -66.2019 669.129 -154.412 564.004C-242.622 458.879 -312.595 355.452 -354.424 273.23C-375.341 232.112 -389.195 196.347 -394.79 168.352C-397.588 154.354 -398.31 142.351 -396.85 132.617C-395.392 122.891 -391.766 115.493 -385.918 110.586C-380.07 105.679 -372.155 103.393 -362.323 103.645C-352.483 103.898 -340.788 106.693 -327.489 111.879C-300.891 122.251 -268.075 142.104 -231.214 169.845C-157.504 225.315 -67.7987 312.185 20.4115 417.31C108.622 522.435 178.594 625.862 220.423 708.084C241.341 749.203 255.194 784.967 260.79 812.962C263.587 826.96 264.31 838.963 262.85 848.697C261.391 858.423 257.765 865.821 251.917 870.728Z" stroke="#2B2C3B" stroke-width="2"/>
<path opacity="0.137931" d="M217.578 901.047C211.325 905.426 203.241 907.013 193.469 905.905C183.688 904.796 172.281 900.991 159.484 894.666C133.892 882.016 102.931 859.378 68.6278 828.53C0.0334905 766.847 -81.7596 672.489 -160.472 560.076C-239.184 447.663 -299.876 338.531 -334.38 252.976C-351.634 210.191 -362.318 173.355 -365.452 144.979C-367.019 130.791 -366.693 118.771 -364.39 109.201C-362.089 99.6389 -357.832 92.585 -351.579 88.2062C-345.325 83.8273 -337.241 82.2402 -327.469 83.3483C-317.688 84.4575 -306.281 88.2618 -293.484 94.5872C-267.892 107.237 -236.931 129.875 -202.628 160.723C-134.034 222.407 -52.2406 316.764 26.4717 429.177C105.184 541.59 165.876 650.722 200.379 736.277C217.634 779.062 228.318 815.898 231.452 844.274C233.019 858.462 232.692 870.483 230.389 880.053C228.089 889.614 223.832 896.668 217.578 901.047Z" stroke="#2B2C3B" stroke-width="2"/>
<path opacity="0.172414" d="M181.074 928.272C174.463 932.089 166.271 932.965 156.633 931.01C146.986 929.053 135.954 924.268 123.757 916.852C99.3648 902.019 70.495 876.769 39.0108 843.049C-23.9464 775.622 -97.2044 674.495 -165.82 555.649C-234.435 436.804 -285.385 322.797 -312.3 234.561C-325.76 190.435 -333.193 152.808 -333.842 124.267C-334.166 109.996 -332.793 98.0496 -329.665 88.7168C-326.54 79.392 -321.685 72.736 -315.073 68.9188C-308.462 65.1017 -300.27 64.2251 -290.632 66.1808C-280.985 68.1381 -269.953 72.9221 -257.756 80.3388C-233.364 95.1715 -204.494 120.422 -173.01 154.141C-110.052 221.569 -36.7943 322.696 31.8211 441.541C100.436 560.387 151.386 674.394 178.301 762.63C191.761 806.756 199.194 844.383 199.843 872.924C200.168 887.195 198.795 899.141 195.666 908.474C192.541 917.799 187.686 924.455 181.074 928.272Z" stroke="#2B2C3B" stroke-width="2"/>
<path opacity="0.206897" d="M142.68 952.227C135.761 955.454 127.524 955.613 118.093 952.825C108.654 950.034 98.0805 944.307 86.5765 935.855C63.5695 918.953 37.0103 891.283 8.58477 854.947C-48.2562 782.289 -112.422 675.162 -170.418 550.789C-228.414 426.416 -269.234 308.402 -288.356 218.156C-297.919 173.024 -302.044 134.893 -300.203 106.404C-299.283 92.1588 -296.874 80.3777 -292.944 71.3531C-289.018 62.3362 -283.601 56.1286 -276.682 52.9022C-269.763 49.6758 -261.526 49.5166 -252.095 52.3048C-242.656 55.0954 -232.082 60.8228 -220.578 69.2742C-197.571 86.1764 -171.012 113.847 -142.587 150.182C-85.7456 222.84 -21.5801 329.967 36.4161 454.341C94.4124 578.714 135.232 696.728 154.354 786.974C163.917 832.105 168.042 870.237 166.201 898.726C165.281 912.971 162.872 924.752 158.942 933.776C155.016 942.793 149.599 949.001 142.68 952.227Z" stroke="#2B2C3B" stroke-width="2"/>
<path opacity="0.241379" d="M102.692 972.762C95.5178 975.373 87.2982 974.813 78.146 971.214C68.9859 967.611 58.952 960.984 48.2285 951.562C26.7821 932.719 2.73557 902.839 -22.4149 864.165C-72.707 786.829 -127.292 674.517 -174.227 545.563C-221.163 416.608 -251.541 295.486 -262.726 203.916C-268.319 158.123 -269.105 119.777 -264.788 91.557C-262.629 77.4464 -259.203 65.9201 -254.502 57.2723C-249.804 48.6319 -243.867 42.92 -236.693 40.309C-229.519 37.6979 -221.3 38.2571 -212.148 41.8568C-202.988 45.4594 -192.954 52.0865 -182.23 61.5084C-160.784 80.3515 -136.737 110.231 -111.587 148.906C-61.2946 226.241 -6.71001 338.553 40.2257 467.508C87.1614 596.463 117.54 717.585 128.724 809.154C134.317 854.947 135.103 893.293 130.786 921.514C128.628 935.624 125.201 947.15 120.5 955.798C115.803 964.439 109.866 970.15 102.692 972.762Z" stroke="#2B2C3B" stroke-width="2"/>
<path opacity="0.275862" d="M61.4136 989.744C54.0394 991.72 45.8998 990.446 37.0962 986.063C28.2849 981.675 18.8668 974.199 9.00521 963.878C-10.7173 943.238 -32.0681 911.376 -53.7522 870.656C-97.1126 789.232 -141.701 672.59 -177.219 540.035C-212.737 407.481 -232.443 284.172 -235.604 191.976C-237.185 145.87 -234.625 107.601 -227.866 79.8646C-224.486 65.9958 -220.067 54.812 -214.63 46.6069C-209.198 38.4087 -202.786 33.2361 -195.411 31.2602C-188.037 29.2843 -179.898 30.5578 -171.094 34.9414C-162.283 39.3287 -152.865 46.8051 -143.003 57.1257C-123.281 77.7663 -101.93 109.628 -80.2457 150.348C-36.8852 231.772 7.70305 348.414 43.221 480.969C78.7389 613.523 98.4453 736.832 101.606 829.028C103.187 875.134 100.628 913.403 93.8677 941.139C90.4877 955.008 86.0695 966.192 80.6325 974.397C75.2 982.595 68.7877 987.768 61.4136 989.744Z" stroke="#2B2C3B" stroke-width="2"/>
<path opacity="0.310345" d="M19.1559 1003.08C11.6376 1004.41 3.63998 1002.43 -4.74815 997.295C-13.1434 992.156 -21.8741 983.887 -30.7987 972.746C-48.6472 950.465 -67.1398 916.864 -85.1924 874.41C-121.291 789.516 -155.544 669.432 -179.374 534.286C-203.204 399.14 -212.088 274.583 -207.201 182.462C-204.758 136.394 -198.873 98.4937 -189.721 71.4519C-185.145 57.9306 -179.769 47.1744 -173.638 39.4743C-167.511 31.7809 -160.673 27.1867 -153.154 25.8611C-145.636 24.5354 -137.638 26.5135 -129.25 31.6476C-120.855 36.7862 -112.124 45.055 -103.2 56.1959C-85.3513 78.4768 -66.8587 112.078 -48.8061 154.533C-12.7072 239.426 21.5454 359.511 45.3752 494.656C69.2051 629.802 78.0894 754.36 73.203 846.48C70.7593 892.549 64.8743 930.449 55.7227 957.49C51.1468 971.012 45.7707 981.768 39.6392 989.468C33.513 997.161 26.6742 1001.76 19.1559 1003.08Z" stroke="#2B2C3B" stroke-width="2"/>
<path opacity="0.344828" d="M-23.7588 1012.7C-31.364 1013.37 -39.1588 1010.7 -47.0675 1004.85C-54.983 999.001 -62.9598 990.003 -70.8794 978.127C-86.7181 954.375 -102.212 919.29 -116.496 875.423C-145.058 787.707 -168.714 665.094 -180.675 528.385C-192.635 391.677 -190.63 266.819 -177.733 175.475C-171.284 129.795 -162.118 92.5523 -150.644 66.411C-144.907 53.3399 -138.614 43.0932 -131.835 35.9569C-125.061 28.8266 -117.848 24.846 -110.243 24.1806C-102.638 23.5153 -94.843 26.1828 -86.9343 32.0286C-79.0188 37.8793 -71.042 46.8775 -63.1224 58.7539C-47.2838 82.5056 -31.79 117.591 -17.5062 161.457C11.0563 249.174 34.7125 371.787 46.6729 508.495C58.6334 645.204 56.628 770.061 43.7313 861.405C37.2818 907.086 28.116 944.328 16.6424 970.47C10.9054 983.541 4.61234 993.787 -2.16693 1000.92C-8.94042 1008.05 -16.1536 1012.03 -23.7588 1012.7Z" stroke="#2B2C3B" stroke-width="2"/>
<path opacity="0.37931" d="M-67.0006 1018.56C-74.6349 1018.56 -82.1675 1015.22 -89.5367 1008.71C-96.9121 1002.19 -104.074 992.531 -110.929 980.01C-124.637 954.968 -137.014 918.666 -147.42 873.722C-168.229 783.849 -181.109 659.642 -181.109 522.411C-181.109 385.18 -168.229 260.972 -147.42 171.1C-137.014 126.156 -124.637 89.8536 -110.929 64.8117C-104.074 52.2904 -96.9121 42.6312 -89.5367 36.1128C-82.1675 29.6001 -74.6349 26.2632 -67.0006 26.2632C-59.3663 26.2632 -51.8337 29.6001 -44.4646 36.1128C-37.0891 42.6312 -29.9269 52.2904 -23.0725 64.8117C-9.36429 89.8536 3.01258 126.156 13.4188 171.1C34.2276 260.972 47.1074 385.18 47.1074 522.411C47.1074 659.642 34.2276 783.849 13.4188 873.722C3.01258 918.666 -9.36429 954.968 -23.0725 980.01C-29.9269 992.531 -37.0891 1002.19 -44.4646 1008.71C-51.8337 1015.22 -59.3663 1018.56 -67.0006 1018.56Z" stroke="#2B2C3B" stroke-width="2"/>
<path opacity="0.413793" d="M-110.241 1020.64C-117.847 1019.98 -125.06 1015.99 -131.833 1008.86C-138.613 1001.73 -144.906 991.482 -150.643 978.411C-162.116 952.269 -171.282 915.027 -177.732 869.346C-190.628 778.002 -192.634 653.145 -180.673 516.436C-168.713 379.728 -145.056 257.115 -116.494 169.398C-102.21 125.532 -86.7165 90.4466 -70.8778 66.6948C-62.9582 54.8185 -54.9814 45.8202 -47.0659 39.9695C-39.1572 34.1238 -31.3624 31.4562 -23.7572 32.1216C-16.152 32.787 -8.93881 36.7676 -2.16532 43.8978C4.61394 51.0342 10.907 61.2809 16.644 74.352C28.1176 100.493 37.2834 137.736 43.7329 183.416C56.6296 274.76 58.635 399.618 46.6745 536.326C34.7141 673.035 11.0579 795.647 -17.5046 883.364C-31.7884 927.231 -47.2822 962.316 -63.1208 986.068C-71.0404 997.944 -79.0172 1006.94 -86.9327 1012.79C-94.8414 1018.64 -102.636 1021.31 -110.241 1020.64Z" stroke="#2B2C3B" stroke-width="2"/>
<path opacity="0.448276" d="M-153.156 1018.96C-160.674 1017.64 -167.513 1013.04 -173.639 1005.35C-179.771 997.648 -185.147 986.891 -189.723 973.37C-198.874 946.328 -204.759 908.428 -207.203 862.36C-212.089 770.239 -203.205 645.682 -179.375 510.536C-155.545 375.39 -121.293 255.306 -85.1938 170.412C-67.1412 127.958 -48.6485 94.3565 -30.8 72.0755C-21.8755 60.9347 -13.1448 52.6659 -4.7495 47.5273C3.63864 42.3931 11.6362 40.415 19.1546 41.7407C26.6729 43.0664 33.5116 47.6605 39.6379 55.354C45.7694 63.054 51.1454 73.8102 55.7214 87.3316C64.8729 114.373 70.7579 152.273 73.2016 198.342C78.0881 290.462 69.2038 415.019 45.3739 550.165C21.544 685.311 -12.7085 805.396 -48.8074 890.289C-66.86 932.744 -85.3527 966.345 -103.201 988.626C-112.126 999.767 -120.856 1008.04 -129.252 1013.17C-137.64 1018.31 -145.637 1020.29 -153.156 1018.96Z" stroke="#2B2C3B" stroke-width="2"/>
<path opacity="0.482759" d="M-195.412 1013.56C-202.786 1011.58 -209.199 1006.41 -214.631 998.213C-220.068 990.008 -224.486 978.824 -227.866 964.956C-234.626 937.219 -237.186 898.951 -235.605 852.845C-232.444 760.649 -212.738 637.34 -177.22 504.785C-141.702 372.23 -97.1134 255.588 -53.753 174.164C-32.0689 133.444 -10.7181 101.583 9.00441 80.942C18.866 70.6213 28.2841 63.1449 37.0953 58.7576C45.899 54.374 54.0386 53.1005 61.4128 55.0764C68.7869 57.0523 75.1992 62.225 80.6317 70.4231C86.0687 78.6283 90.4869 89.8121 93.8669 103.681C100.627 131.417 103.186 169.686 101.605 215.792C98.4445 307.988 78.7381 431.297 43.2202 563.852C7.70225 696.406 -36.886 813.048 -80.2465 894.473C-101.931 935.192 -123.281 967.054 -143.004 987.695C-152.865 998.015 -162.284 1005.49 -171.095 1009.88C-179.898 1014.26 -188.038 1015.54 -195.412 1013.56Z" stroke="#2B2C3B" stroke-width="2"/>
<path opacity="0.517241" d="M-236.692 1004.51C-243.866 1001.9 -249.803 996.192 -254.5 987.551C-259.201 978.903 -262.628 967.377 -264.787 953.267C-269.103 925.046 -268.318 886.7 -262.725 840.907C-251.54 749.338 -221.162 628.216 -174.226 499.261C-127.29 370.306 -72.7057 257.994 -22.4137 180.659C2.73683 141.984 26.7834 112.104 48.2297 93.2614C58.9533 83.8395 68.9872 77.2124 78.1472 73.6097C87.2995 70.0101 95.5191 69.4509 102.693 72.0619C109.867 74.673 115.804 80.3849 120.501 89.0253C125.202 97.6731 128.629 109.199 130.787 123.31C135.104 151.53 134.319 189.876 128.725 235.669C117.541 327.239 87.1627 448.361 40.227 577.315C-6.70875 706.27 -61.2933 818.582 -111.585 895.918C-136.736 934.592 -160.782 964.472 -182.229 983.315C-192.952 992.737 -202.986 999.364 -212.146 1002.97C-221.299 1006.57 -229.518 1007.13 -236.692 1004.51Z" stroke="#2B2C3B" stroke-width="2"/>
<path opacity="0.551724" d="M-276.68 991.919C-283.599 988.693 -289.016 982.485 -292.942 973.468C-296.872 964.444 -299.281 952.662 -300.201 938.417C-302.042 909.928 -297.917 871.797 -288.354 826.666C-269.232 736.419 -228.413 618.406 -170.416 494.032C-112.42 369.659 -48.2545 262.532 8.58636 189.874C37.0119 153.539 63.5711 125.868 86.5781 108.966C98.0821 100.515 108.655 94.7872 118.095 91.9966C127.526 89.2084 135.763 89.3676 142.682 92.594C149.601 95.8204 155.017 102.028 158.944 111.045C162.873 120.07 165.282 131.851 166.203 146.096C168.044 174.585 163.919 212.716 154.356 257.847C135.233 348.094 94.414 466.107 36.4177 590.481C-21.5785 714.854 -85.744 821.981 -142.585 894.639C-171.01 930.975 -197.57 958.645 -220.577 975.547C-232.081 983.998 -242.654 989.726 -252.093 992.516C-261.524 995.305 -269.761 995.145 -276.68 991.919Z" stroke="#2B2C3B" stroke-width="2"/>
<path opacity="0.586207" d="M-315.074 975.903C-321.686 972.086 -326.541 965.43 -329.666 956.105C-332.795 946.772 -334.168 934.826 -333.843 920.555C-333.194 892.014 -325.761 854.387 -312.301 810.261C-285.386 722.024 -234.436 608.018 -165.821 489.172C-97.2056 370.327 -23.9476 269.2 39.0096 201.772C70.4938 168.053 99.3636 142.802 123.756 127.97C135.953 120.553 146.985 115.769 156.632 113.812C166.27 111.856 174.462 112.733 181.073 116.55C187.685 120.367 192.54 127.023 195.665 136.348C198.793 145.681 200.166 157.627 199.842 171.898C199.193 200.439 191.76 238.066 178.3 282.192C151.385 370.428 100.435 484.435 31.8199 603.28C-36.7955 722.126 -110.054 823.253 -173.011 890.68C-204.495 924.4 -233.365 949.65 -257.757 964.483C-269.954 971.899 -280.986 976.683 -290.633 978.641C-300.271 980.596 -308.463 979.72 -315.074 975.903Z" stroke="#2B2C3B" stroke-width="2"/>
<path opacity="0.62069" d="M-351.578 956.615C-357.832 952.236 -362.089 945.182 -364.389 935.621C-366.692 926.051 -367.019 914.03 -365.452 899.842C-362.317 871.466 -351.634 834.63 -334.379 791.845C-299.876 706.29 -239.184 597.158 -160.472 484.745C-81.7593 372.332 0.0337985 277.975 68.6281 216.291C102.931 185.444 133.892 162.806 159.485 150.155C172.281 143.83 183.688 140.026 193.469 138.916C203.241 137.808 211.325 139.395 217.579 143.774C223.832 148.153 228.089 155.207 230.39 164.769C232.693 174.339 233.019 186.359 231.452 200.547C228.318 228.923 217.634 265.759 200.38 308.544C165.876 394.099 105.184 503.231 26.472 615.644C-52.2403 728.057 -134.033 822.415 -202.628 884.098C-236.931 914.946 -267.892 937.584 -293.484 950.234C-306.281 956.559 -317.688 960.364 -327.469 961.473C-337.241 962.581 -345.325 960.994 -351.578 956.615Z" stroke="#2B2C3B" stroke-width="2"/>
<path opacity="0.655172" d="M-385.918 934.236C-391.766 929.329 -395.391 921.931 -396.85 912.205C-398.31 902.471 -397.588 890.468 -394.79 876.47C-389.194 848.475 -375.341 812.711 -354.423 771.592C-312.595 689.37 -242.622 585.943 -154.412 480.818C-66.2015 375.693 23.5041 288.823 97.2135 233.353C134.075 205.613 166.891 185.759 193.488 175.387C206.788 170.201 218.483 167.406 228.323 167.153C238.154 166.901 246.069 169.187 251.918 174.094C257.766 179.001 261.391 186.399 262.85 196.125C264.31 205.859 263.588 217.862 260.79 231.86C255.195 259.855 241.341 295.62 220.423 336.738C178.595 418.96 108.622 522.388 20.4119 627.512C-67.7984 732.637 -157.504 819.507 -231.213 874.978C-268.075 902.718 -300.89 922.571 -327.488 932.943C-340.788 938.129 -352.483 940.925 -362.323 941.177C-372.154 941.429 -380.069 939.144 -385.918 934.236Z" stroke="#2B2C3B" stroke-width="2"/>
<path opacity="0.689655" d="M-417.83 908.963C-423.228 903.565 -426.195 895.879 -426.801 886.063C-427.407 876.239 -425.641 864.344 -421.634 850.644C-413.62 823.243 -396.702 788.822 -372.28 749.683C-323.445 671.42 -244.724 574.484 -147.687 477.447C-50.6503 380.41 46.2852 301.69 124.549 252.854C163.687 228.432 198.109 211.515 225.509 203.501C239.21 199.493 251.104 197.728 260.929 198.334C270.745 198.939 278.431 201.906 283.829 207.305C289.227 212.703 292.194 220.389 292.8 230.205C293.406 240.029 291.64 251.924 287.633 265.624C279.619 293.025 262.701 327.446 238.279 366.585C189.444 444.848 110.723 541.784 13.6861 638.82C-83.3508 735.857 -180.286 814.578 -258.55 863.413C-297.688 887.835 -332.11 904.753 -359.51 912.767C-373.211 916.774 -385.105 918.54 -394.93 917.934C-404.746 917.328 -412.432 914.362 -417.83 908.963Z" stroke="#2B2C3B" stroke-width="2"/>
<path opacity="0.724138" d="M-447.072 881.021C-451.979 875.172 -454.265 867.257 -454.013 857.426C-453.76 847.586 -450.965 835.891 -445.779 822.591C-435.407 795.994 -415.554 763.178 -387.813 726.317C-332.343 652.607 -245.473 562.902 -140.348 474.691C-35.2234 386.481 68.2042 316.508 150.426 274.68C191.544 253.762 227.309 239.909 255.304 234.313C269.302 231.515 281.305 230.793 291.039 232.253C300.765 233.712 308.163 237.337 313.07 243.185C317.977 249.034 320.263 256.949 320.011 266.78C319.758 276.62 316.963 288.316 311.777 301.615C301.405 328.213 281.552 361.028 253.811 397.89C198.341 471.599 111.471 561.305 6.34617 649.515C-98.7787 737.725 -202.206 807.698 -284.428 849.526C-325.547 870.444 -361.311 884.298 -389.306 889.893C-403.304 892.691 -415.307 893.413 -425.041 891.953C-434.767 890.494 -442.165 886.869 -447.072 881.021Z" stroke="#2B2C3B" stroke-width="2"/>
<path opacity="0.758621" d="M-473.42 850.652C-477.798 844.398 -479.386 836.314 -478.277 826.542C-477.168 816.761 -473.364 805.354 -467.039 792.557C-454.388 766.965 -431.75 736.004 -400.903 701.701C-339.219 633.107 -244.862 551.313 -132.449 472.601C-20.0359 393.889 89.0966 333.197 174.651 298.694C217.436 281.439 254.272 270.755 282.648 267.621C296.836 266.054 308.857 266.38 318.427 268.683C327.989 270.984 335.042 275.241 339.421 281.494C343.8 287.748 345.387 295.832 344.279 305.604C343.17 315.385 339.366 326.792 333.04 339.589C320.39 365.181 297.752 396.142 266.905 430.445C205.221 499.039 110.863 580.832 -1.54944 659.545C-113.962 738.257 -223.095 798.949 -308.65 833.452C-351.434 850.707 -388.271 861.391 -416.646 864.525C-430.835 866.092 -442.855 865.765 -452.425 863.463C-461.987 861.162 -469.041 856.905 -473.42 850.652Z" stroke="#2B2C3B" stroke-width="2"/>
<path opacity="0.793103" d="M-496.677 818.116C-500.494 811.504 -501.371 803.312 -499.415 793.674C-497.458 784.028 -492.674 772.995 -485.257 760.799C-470.425 736.406 -445.174 707.536 -411.455 676.052C-344.027 613.095 -242.9 539.837 -124.055 471.221C-5.20949 402.606 108.797 351.656 197.034 324.741C241.16 311.281 278.787 303.849 307.328 303.199C321.599 302.875 333.545 304.248 342.878 307.376C352.202 310.502 358.859 315.357 362.676 321.968C366.493 328.58 367.369 336.771 365.414 346.41C363.456 356.056 358.672 367.088 351.256 379.285C336.423 403.678 311.173 432.548 277.453 464.032C210.026 526.989 108.899 600.247 -9.9468 668.862C-128.792 737.478 -242.799 788.427 -331.035 815.343C-375.161 828.803 -412.788 836.235 -441.329 836.884C-455.6 837.209 -467.547 835.836 -476.879 832.708C-486.204 829.582 -492.86 824.727 -496.677 818.116Z" stroke="#2B2C3B" stroke-width="2"/>
<path opacity="0.827586" d="M-516.663 783.693C-519.89 776.774 -520.049 768.537 -517.261 759.105C-514.47 749.666 -508.743 739.093 -500.291 727.589C-483.389 704.582 -455.719 678.023 -419.383 649.597C-346.725 592.756 -239.598 528.591 -115.225 470.595C9.14846 412.598 127.162 371.779 217.408 352.656C262.54 343.093 300.671 338.969 329.16 340.809C343.405 341.73 355.186 344.139 364.211 348.069C373.228 351.995 379.435 357.411 382.662 364.33C385.888 371.25 386.047 379.487 383.259 388.918C380.469 398.357 374.741 408.93 366.29 420.434C349.388 443.441 321.717 470 285.382 498.426C212.724 555.267 105.597 619.432 -18.7766 677.429C-143.15 735.425 -261.164 776.244 -351.41 795.367C-396.541 804.93 -434.673 809.054 -463.162 807.214C-477.407 806.293 -489.188 803.884 -498.212 799.955C-507.229 796.028 -513.437 790.612 -516.663 783.693Z" stroke="#2B2C3B" stroke-width="2"/>
<path opacity="0.862069" d="M-533.226 747.673C-535.838 740.499 -535.278 732.279 -531.679 723.127C-528.076 713.967 -521.449 703.933 -512.027 693.21C-493.184 671.763 -463.304 647.717 -424.629 622.566C-347.294 572.274 -234.982 517.69 -106.027 470.754C22.9274 423.818 144.05 393.44 235.619 382.255C281.412 376.662 319.758 375.877 347.978 380.193C362.089 382.352 373.615 385.778 382.263 390.48C390.903 395.177 396.615 401.114 399.226 408.288C401.837 415.462 401.278 423.681 397.678 432.834C394.076 441.994 387.449 452.028 378.027 462.751C359.184 484.198 329.304 508.244 290.629 533.395C213.294 583.687 100.982 638.271 -27.9729 685.207C-156.928 732.143 -278.05 762.521 -369.619 773.705C-415.412 779.299 -453.758 780.084 -481.978 775.767C-496.089 773.609 -507.615 770.182 -516.263 765.481C-524.903 760.784 -530.615 754.847 -533.226 747.673Z" stroke="#2B2C3B" stroke-width="2"/>
<path opacity="0.896552" d="M-546.242 710.362C-548.218 702.988 -546.944 694.848 -542.561 686.045C-538.173 677.233 -530.697 667.815 -520.376 657.954C-499.736 638.231 -467.874 616.88 -427.154 595.196C-345.73 551.836 -229.088 507.247 -96.5333 471.73C36.0215 436.212 159.33 416.505 251.526 413.344C297.632 411.763 335.901 414.323 363.637 421.083C377.506 424.463 388.69 428.881 396.895 434.318C405.093 439.75 410.266 446.163 412.242 453.537C414.218 460.911 412.944 469.051 408.561 477.854C404.173 486.666 396.697 496.084 386.376 505.945C365.736 525.668 333.874 547.019 293.154 568.703C211.73 612.063 95.0882 656.651 -37.4666 692.169C-170.021 727.687 -293.33 747.394 -385.526 750.555C-431.632 752.135 -469.901 749.576 -497.637 742.816C-511.506 739.436 -522.69 735.018 -530.895 729.581C-539.093 724.148 -544.266 717.736 -546.242 710.362Z" stroke="#2B2C3B" stroke-width="2"/>
<path opacity="0.931035" d="M-555.609 672.074C-556.935 664.556 -554.957 656.558 -549.823 648.17C-544.684 639.775 -536.415 631.044 -525.274 622.12C-502.994 604.271 -469.392 585.779 -426.938 567.726C-342.044 531.627 -221.96 497.374 -86.8139 473.545C48.3321 449.715 172.889 440.83 265.01 445.717C311.078 448.161 348.978 454.046 376.02 463.197C389.541 467.773 400.298 473.149 407.998 479.281C415.691 485.407 420.285 492.246 421.611 499.764C422.937 507.282 420.958 515.28 415.824 523.668C410.686 532.063 402.417 540.794 391.276 549.719C368.995 567.567 335.394 586.06 292.939 604.112C208.046 640.211 87.9614 674.464 -47.1846 698.294C-182.331 722.123 -306.888 731.008 -399.008 726.121C-445.077 723.678 -482.977 717.793 -510.018 708.641C-523.54 704.065 -534.296 698.689 -541.996 692.558C-549.69 686.431 -554.284 679.593 -555.609 672.074Z" stroke="#2B2C3B" stroke-width="2"/>
<path opacity="0.965517" d="M-561.259 633.129C-561.924 625.524 -559.257 617.729 -553.411 609.82C-547.56 601.905 -538.562 593.928 -526.686 586.009C-502.934 570.17 -467.849 554.676 -423.982 540.392C-336.265 511.83 -213.653 488.174 -76.9443 476.213C59.7643 464.253 184.622 466.258 275.966 479.155C321.646 485.604 358.889 494.77 385.03 506.244C398.101 511.981 408.348 518.274 415.484 525.053C422.615 531.827 426.595 539.04 427.261 546.645C427.926 554.25 425.258 562.045 419.413 569.954C413.562 577.869 404.564 585.846 392.687 593.766C368.936 609.604 333.85 625.098 289.984 639.382C202.267 667.944 79.6546 691.6 -57.054 703.561C-193.763 715.521 -318.62 713.516 -409.964 700.619C-455.644 694.17 -492.887 685.004 -519.028 673.53C-532.1 667.793 -542.346 661.5 -549.483 654.721C-556.613 647.948 -560.593 640.734 -561.259 633.129Z" stroke="#2B2C3B" stroke-width="2"/>
<path d="M-563.149 593.857C-563.149 586.223 -559.812 578.69 -553.299 571.321C-546.781 563.946 -537.122 556.783 -524.6 549.929C-499.559 536.221 -463.256 523.844 -418.312 513.438C-328.44 492.629 -204.232 479.749 -67.0012 479.749C70.2296 479.749 194.437 492.629 284.31 513.438C329.254 523.844 365.556 536.221 390.598 549.929C403.119 556.783 412.779 563.946 419.297 571.321C425.81 578.69 429.146 586.223 429.146 593.857C429.146 601.491 425.81 609.024 419.297 616.393C412.779 623.769 403.119 630.931 390.598 637.785C365.556 651.493 329.254 663.87 284.31 674.276C194.437 695.085 70.2296 707.965 -67.0012 707.965C-204.232 707.965 -328.44 695.085 -418.312 674.276C-463.256 663.87 -499.559 651.493 -524.6 637.785C-537.122 630.931 -546.781 623.769 -553.299 616.393C-559.812 609.024 -563.149 601.491 -563.149 593.857Z" stroke="#2B2C3B" stroke-width="2"/>
</g>
</svg>
