<svg width="16" height="13" viewBox="0 0 16 13" fill="none" xmlns="http://www.w3.org/2000/svg">
<path d="M14.7233 1.62369L16 0.466642V0.213379H11.5773L8.42533 7.6458L4.83933 0.213379H0.202V0.466642L1.69333 2.16748C1.83867 2.29317 1.91467 2.47696 1.89533 2.66201V9.34601C1.94133 9.58664 1.85867 9.83422 1.68 10.0092L0 11.938V12.1881H4.76333V11.9349L3.08333 10.0092C2.90133 9.83359 2.81533 9.59043 2.852 9.34601V3.56454L7.03333 12.1913H7.51933L11.1147 3.56454V10.4367C11.1147 10.618 11.1147 10.6553 10.9893 10.774L9.696 11.9595V12.2134H15.9707V11.9601L14.724 10.8037C14.6147 10.7254 14.558 10.594 14.5813 10.4664V1.96096C14.558 1.83275 14.614 1.70138 14.7233 1.62369Z" fill="#5231D4"/>
</svg>
