<svg width="21" height="16" viewBox="0 0 21 16" fill="none" xmlns="http://www.w3.org/2000/svg">
<path d="M18.93 1.88042L20.5715 0.337684V0H14.8852L10.8326 9.90989L6.222 0H0.259714V0.337684L2.17715 2.60547C2.364 2.77305 2.46172 3.01811 2.43686 3.26484V12.1768C2.49601 12.4977 2.38972 12.8278 2.16001 13.0611L0 15.6328V15.9663H6.12429V15.6286L3.96428 13.0611C3.73028 12.8269 3.61972 12.5027 3.66686 12.1768V4.46821L9.04286 15.9705H9.66772L14.2903 4.46821V13.6312C14.2903 13.8728 14.2903 13.9225 14.1292 14.0808L12.4663 15.6615V16H20.5337V15.6623L18.9309 14.1204C18.7903 14.016 18.7175 13.8408 18.7475 13.6707V2.33011C18.7175 2.15916 18.7895 1.984 18.93 1.88042Z" fill="#7BF5FB"/>
</svg>
