<svg xmlns="http://www.w3.org/2000/svg"
 width="1001.000000pt" height="253.000000pt" viewBox="0 0 1001.000000 253.000000"
 preserveAspectRatio="xMidYMid meet">

<g transform="translate(0.000000,253.000000) scale(0.100000,-0.100000)"
fill="#FFF" stroke="none">
<path d="M132 2345 c89 -112 248 -325 448 -599 47 -64 85 -124 85 -134 0 -10
-9 -18 -24 -20 -57 -8 -69 3 -198 201 -138 211 -166 248 -108 142 195 -355
196 -357 177 -384 -31 -44 -51 -92 -61 -156 -16 -91 -45 -153 -115 -245 -83
-109 -97 -140 -97 -218 0 -61 4 -76 53 -170 l53 -104 42 6 c59 8 162 57 200
95 17 18 35 45 38 62 13 57 -3 86 -77 146 -102 81 -118 135 -68 233 28 55 47
120 55 185 9 79 18 92 68 105 115 28 159 61 170 126 6 30 -14 53 -334 410
-398 443 -434 480 -307 319z m237 -1397 c11 -30 -4 -58 -31 -58 -16 0 -19 5
-16 25 3 14 1 28 -4 31 -13 8 1 24 23 24 11 0 23 -10 28 -22z"/>
<path d="M280 2030 c6 -11 13 -20 16 -20 2 0 0 9 -6 20 -6 11 -13 20 -16 20
-2 0 0 -9 6 -20z"/>
<path d="M765 2017 c103 -35 158 -82 281 -239 137 -174 200 -208 409 -223 146
-10 190 -23 233 -73 l24 -27 -7 30 c-10 46 -39 105 -75 155 l-33 44 -13 -43
c-31 -106 -107 -112 -80 -6 20 78 11 122 -33 150 -77 51 -156 69 -294 70
l-128 0 -62 59 c-70 67 -140 103 -213 111 l-49 5 40 -13z"/>
<path d="M692 1924 c9 -96 43 -172 103 -230 49 -48 100 -72 118 -55 4 4 -4 27
-17 52 -14 24 -32 76 -41 114 -25 111 -61 157 -135 171 l-33 7 5 -59z"/>
<path d="M1528 1912 c-3 -29 -7 -55 -10 -57 -3 -3 -30 4 -61 14 -32 11 -57 18
-57 16 0 -2 25 -17 55 -34 73 -41 86 -63 87 -151 1 -79 12 -75 21 9 4 29 9 56
12 59 3 3 23 -9 45 -27 55 -44 50 -29 -14 40 -49 53 -55 64 -63 121 l-9 63 -6
-53z"/>
<path d="M5719 1719 c-61 -9 -116 -39 -160 -86 -47 -50 -64 -95 -63 -168 1
-120 61 -198 224 -295 176 -105 232 -177 210 -270 -21 -88 -106 -159 -190
-160 -97 0 -179 58 -201 143 -12 49 -31 73 -49 62 -6 -4 -10 -49 -10 -111 l0
-104 28 -11 c15 -6 61 -18 102 -26 142 -30 298 9 389 97 79 77 105 166 77 265
-23 79 -82 138 -236 240 -186 123 -230 179 -208 261 18 68 118 122 204 110 65
-8 92 -26 121 -75 29 -51 40 -61 67 -61 18 0 18 6 12 83 -8 95 -17 107 -85
108 -25 0 -77 2 -116 3 -38 2 -91 -1 -116 -5z"/>
<path d="M2323 1703 c-38 -7 -29 -41 11 -49 48 -8 54 -32 60 -227 3 -89 8
-237 11 -328 3 -91 10 -180 15 -197 14 -50 69 -119 124 -157 72 -49 139 -64
272 -61 103 2 117 5 177 34 79 39 157 120 176 181 16 53 28 217 36 490 4 118
11 225 15 236 5 14 20 25 39 28 36 7 44 41 12 50 -44 11 -260 5 -278 -8 -23
-17 -8 -34 39 -44 60 -12 63 -29 63 -356 0 -339 -6 -373 -77 -443 -69 -69
-114 -85 -217 -80 -109 5 -166 34 -208 106 l-28 47 -3 356 -3 356 39 11 c41
13 70 37 58 50 -8 7 -296 12 -333 5z"/>
<path d="M3533 1702 c-25 -2 -33 -8 -33 -23 0 -10 6 -20 13 -20 90 -8 110 -17
133 -61 14 -27 16 -76 15 -363 -1 -297 -8 -416 -27 -447 -3 -5 -26 -18 -50
-28 -48 -21 -57 -44 -21 -54 29 -8 285 -8 315 0 38 11 21 36 -37 59 -37 14
-57 28 -64 45 -13 32 -23 628 -10 641 5 5 49 -37 107 -104 180 -205 453 -501
529 -574 54 -53 82 -73 101 -73 25 0 26 3 27 53 0 28 2 63 4 77 2 14 4 180 5
370 1 190 5 365 8 390 7 41 10 46 46 58 22 7 46 18 54 24 11 10 11 13 -6 19
-16 6 -232 13 -315 10 -42 -1 -31 -31 18 -48 22 -7 52 -25 67 -40 l28 -27 0
-304 c0 -238 -3 -303 -12 -300 -11 4 -169 174 -603 651 l-60 66 -100 3 c-55 2
-115 2 -132 0z"/>
<path d="M4878 1703 c-10 -3 -18 -13 -18 -23 0 -13 10 -20 39 -25 81 -13 76
14 79 -423 4 -450 3 -450 -69 -473 -57 -18 -63 -44 -14 -53 40 -8 312 -7 332
1 7 3 13 13 13 24 0 13 -10 20 -34 25 -71 13 -69 0 -73 437 -5 441 -6 433 65
455 53 17 58 47 10 55 -38 6 -304 6 -330 0z"/>
<path d="M6227 1703 c-29 -7 -15 -37 23 -49 20 -6 44 -25 57 -43 30 -44 95
-201 242 -585 l126 -331 46 -3 46 -3 78 208 c113 303 174 456 185 467 12 12
30 -30 166 -386 l109 -288 36 0 c20 0 41 6 47 13 9 11 192 470 308 775 44 115
69 156 108 175 45 21 47 43 4 50 -55 8 -201 7 -238 -1 -49 -11 -45 -34 7 -45
72 -14 72 -23 -4 -234 -107 -300 -188 -508 -198 -508 -12 0 -88 199 -180 468
-77 225 -77 257 0 271 39 8 47 16 35 36 -8 12 -43 15 -194 15 -179 0 -215 -6
-198 -31 4 -6 28 -20 54 -32 59 -26 83 -67 75 -131 -10 -81 -204 -618 -219
-603 -8 8 -162 418 -217 578 -17 50 -31 107 -31 127 0 34 1 35 45 41 34 6 45
12 45 25 0 13 -10 20 -32 24 -39 6 -305 6 -331 0z"/>
<path d="M8194 1683 c-29 -14 -43 -44 -189 -412 -206 -515 -207 -518 -270
-538 -16 -5 -31 -17 -33 -26 -3 -15 14 -17 172 -17 168 0 176 1 176 20 0 14
-9 21 -34 26 -78 14 -87 58 -39 199 l38 110 168 3 c115 3 172 0 182 -8 17 -14
85 -183 85 -213 0 -41 -36 -85 -75 -93 -25 -4 -35 -11 -35 -25 0 -18 10 -19
195 -19 188 0 195 1 195 20 0 14 -7 20 -22 20 -12 0 -37 17 -58 38 -38 41 -51
70 -281 664 -113 292 -108 285 -175 251z m49 -320 c31 -76 63 -155 71 -175
l16 -38 -135 0 c-101 0 -135 3 -135 13 0 21 112 337 120 337 4 0 33 -62 63
-137z"/>
<path d="M8890 1691 c-45 -5 -55 -9 -55 -25 0 -14 12 -22 46 -32 26 -8 53 -21
60 -30 11 -14 14 -92 14 -415 0 -385 -1 -399 -20 -418 -11 -11 -38 -27 -60
-34 -28 -10 -40 -20 -40 -33 0 -18 11 -19 186 -22 156 -2 188 0 192 12 7 18
-7 30 -55 45 -63 21 -68 35 -68 212 l0 156 42 -20 c33 -17 61 -21 142 -21 91
-1 107 2 158 27 64 32 111 80 142 146 29 64 29 215 -1 282 -29 65 -73 111
-140 144 l-58 30 -215 1 c-118 1 -240 -1 -270 -5z m455 -91 c74 -46 109 -122
108 -238 -1 -143 -67 -210 -216 -220 -52 -3 -83 0 -110 11 l-37 16 0 200 c0
110 3 207 6 216 19 49 179 58 249 15z"/>
<path d="M1180 1528 c0 -111 85 -195 276 -274 216 -88 292 -143 315 -226 l11
-43 15 28 c44 86 35 222 -22 306 -64 96 -151 139 -352 171 -86 14 -147 30
-185 49 l-58 28 0 -39z"/>
<path d="M775 1455 c-17 -16 -25 -35 -25 -58 0 -48 19 -61 82 -55 40 4 57 11
75 32 24 29 22 47 -10 84 -29 31 -90 30 -122 -3z m103 -12 c2 -14 -3 -23 -17
-28 -30 -9 -61 3 -61 24 0 26 10 32 45 29 22 -2 31 -9 33 -25z"/>
<path d="M1312 1240 c16 -47 5 -124 -25 -169 -34 -51 -87 -76 -221 -101 -62
-12 -129 -32 -155 -46 -25 -14 -37 -23 -27 -19 33 10 149 25 196 25 111 0 212
48 254 119 24 41 24 126 1 175 -22 46 -38 56 -23 16z"/>
<path d="M1394 1205 c-12 -29 3 -130 25 -173 12 -23 47 -81 78 -129 31 -48 67
-110 79 -138 28 -58 31 -138 10 -190 l-15 -35 27 14 c44 23 109 97 134 151 35
76 33 201 -4 271 -35 67 -93 117 -214 184 -121 68 -113 65 -120 45z"/>
<path d="M854 824 c-69 -14 -147 -50 -217 -102 -51 -36 -50 -51 3 -52 43 -1
109 -37 168 -93 69 -65 90 -77 137 -77 71 0 122 89 83 143 -36 49 -128 32
-128 -23 0 -8 6 -4 13 10 27 55 117 21 102 -38 -9 -37 -28 -55 -60 -54 -95 0
-126 111 -44 156 77 42 160 -10 217 -134 58 -130 102 -170 182 -170 34 0 100
22 100 33 0 2 -26 1 -59 -1 -96 -7 -122 20 -146 157 -24 138 -58 193 -144 230
-60 26 -131 31 -207 15z"/>
</g>
</svg>
