<?xml version="1.0" encoding="UTF-8"?> <svg xmlns="http://www.w3.org/2000/svg" width="432" height="432" viewBox="0 0 432 432" fill="none"> <path d="M41.2771 342.996C14.4582 306.098 0.00882818 261.657 4.04163e-06 216.042C-0.00882009 170.427 14.4233 125.98 41.2279 89.072C68.0326 52.1637 105.834 24.6886 149.213 10.5845C192.593 -3.5195 239.324 -3.52839 282.709 10.5591L256.025 92.7355C229.994 84.283 201.956 84.2883 175.928 92.7507C149.9 101.213 127.22 117.698 111.137 139.843C95.054 161.988 86.3947 188.656 86.4 216.025C86.4053 243.394 95.0749 270.059 111.166 292.197L41.2771 342.996Z" fill="#392CE6"></path> <path d="M432 216C432 261.615 417.559 306.059 390.748 342.962C363.936 379.865 326.13 407.332 282.748 421.428C239.365 435.524 192.634 435.524 149.252 421.428C105.87 407.332 68.064 379.865 41.2523 342.962L111.151 292.177C127.238 314.319 149.922 330.799 175.951 339.257C201.981 347.714 230.019 347.714 256.049 339.257C282.078 330.799 304.762 314.319 320.849 292.177C336.936 270.035 345.6 243.369 345.6 216H432Z" fill="#EF4649"></path> <path d="M282.732 10.5666C326.115 24.659 363.923 52.1239 390.738 89.0249C417.552 125.926 431.996 170.369 432 215.983L345.6 215.99C345.598 188.621 336.931 161.956 320.843 139.815C304.754 117.674 282.069 101.195 256.039 92.74L282.732 10.5666Z" fill="#382EC5" fill-opacity="0.7"></path> </svg> 